<svg id="Layer_1" enable-background="new 0 0 24 24" viewBox="0 0 24 24" xmlns="http://www.w3.org/2000/svg" xmlns:xlink="http://www.w3.org/1999/xlink"><radialGradient id="SVGID_1_" cx="8.833" cy="6.167" gradientUnits="userSpaceOnUse" r="17.588"><stop offset="0" stop-color="#193458" stop-opacity=".98"/><stop offset=".9333873" stop-color="#210021"/></radialGradient><linearGradient id="SVGID_2_" gradientUnits="userSpaceOnUse" x1="-1.249" x2="25.249" y1="5.822" y2="18.178"><stop offset="0" stop-color="#fff" stop-opacity=".2"/><stop offset="1" stop-color="#fff" stop-opacity="0"/></linearGradient><g><path d="m1.5 1.5h21v21h-21z" fill="url(#SVGID_1_)"/><g fill="#00b5ef"><path d="m23 23h-22v-22h22zm-21-1h20v-20h-20z"/><path d="m8 18h-2v-12l2.8217659-.0000019c2.0878658-.0000014 3.955945 1.5223303 4.1586885 3.6003294.232627 2.3842745-1.6430339 4.3996725-3.9804544 4.3996725h-1zm0-6h1c1.1030273 0 2-.8969727 2-2s-.8969727-2-2-2h-1z"/><path d="m15.2370796 17.9772453c-1.1941519-.1036434-2.076004-.5285358-2.1843863-.5827351l.8945713-1.7890425c.0028954.0017024.8204852.3945323 1.8090831.3945323.4101562 0 .7436523-.3334961.7436523-.7436523 0-.3203125-.2041016-.6040039-.5083008-.7050781l-.482379-.160656c-1.0203657-.3398314-1.8364744-1.1953974-1.9827442-2.2608728-.2311248-1.6835891 1.0774804-3.1297408 2.7170763-3.1297408 1.4507847 0 2.5797482.5435333 2.703619.6054726l-.8901405 1.7910128c-.0075054-.0037585-.8250103-.3964854-1.8134785-.3964854-.4101562 0-.7436523.3334961-.7436523.7436523 0 .3203125.2041016.6040039.5083008.7050781l.6157227.2050781c1.2093735.4031248 1.9910641 1.5867414 1.8620834 2.880826-.1561318 1.5665217-1.6806393 2.5787326-3.2490273 2.4426108z"/></g><path d="m23 23h-22v-22h22z" fill="url(#SVGID_2_)"/></g><g/><g/><g/><g/><g/><g/><g/><g/><g/><g/><g/><g/><g/><g/><g/></svg>