<svg width="380" height="380" viewBox="0 0 380 380" fill="none" xmlns="http://www.w3.org/2000/svg">
<g clip-path="url(#clip0_735_2)">
<rect width="380" height="380" fill="white"/>
<mask id="mask0_735_2" style="mask-type:luminance" maskUnits="userSpaceOnUse" x="0" y="0" width="380" height="380">
<path d="M0 0H380V380H0V0Z" fill="white"/>
</mask>
<g mask="url(#mask0_735_2)">
<path fill-rule="evenodd" clip-rule="evenodd" d="M264.157 152C265.297 163.951 266 176.548 266 190C266 195.039 263.997 199.872 260.435 203.435C256.872 206.997 252.039 209 247 209C241.961 209 237.128 206.997 233.565 203.435C230.003 199.872 228 195.039 228 190C228 176.453 227.259 163.818 226.005 152H153.748C151.107 177.263 151.082 202.732 153.672 228H190C195.039 228 199.872 230.003 203.435 233.565C206.997 237.128 209 241.961 209 247C209 252.039 206.997 256.872 203.435 260.435C199.872 263.997 195.039 266 190 266H159.904C168.815 305.52 182.742 330.79 190.019 342C190.019 342 205.01 342.247 207.613 342.038C212.631 341.713 217.575 343.374 221.378 346.661C225.182 349.95 227.54 354.601 227.943 359.613C228.31 364.637 226.666 369.599 223.374 373.413C220.081 377.224 215.411 379.574 210.387 379.943C208.601 380.076 190 380 190 380C85.234 380 0 294.766 0 190C0 85.215 85.234 0 190 0C294.766 0 380 85.215 380 190C380 197.201 379.316 204.231 378.499 211.204C377.745 216.068 375.134 220.449 371.216 223.429C367.299 226.406 362.377 227.751 357.491 227.177C352.602 226.604 348.126 224.158 345.004 220.354C341.88 216.551 340.355 211.683 340.746 206.777C341.411 201.248 342 195.7 342 190C342 176.852 340.138 164.16 337.003 152H264.157ZM189.772 38.684C182.438 50.198 168.872 75.373 160.056 114H219.659C210.805 75.373 197.144 50.198 189.772 38.684ZM42.997 228H115.558C114.456 216.049 113.753 203.49 113.753 190.076C113.765 177.363 114.374 164.656 115.577 152H42.997C39.843 164.16 38 176.852 38 190C38.0473 202.827 39.7263 215.597 42.997 228ZM58.558 266C77.3205 298.37 107.322 322.719 142.861 334.419C132.961 312.537 125.641 289.575 121.049 266H58.558ZM121.087 114C126.806 85.481 135.052 62.643 142.937 45.543C107.363 57.2341 77.3304 81.5995 58.558 114H121.087ZM258.628 114H321.423C302.573 81.4469 272.361 57.0061 236.588 45.372C246.609 67.3012 254.007 90.3366 258.628 114Z" fill="url(#paint0_linear_735_2)"/>
</g>
</g>
<defs>
<linearGradient id="paint0_linear_735_2" x1="190" y1="0" x2="190" y2="380.022" gradientUnits="userSpaceOnUse">
<stop stop-color="#0E19FB"/>
<stop offset="1"/>
</linearGradient>
<clipPath id="clip0_735_2">
<rect width="380" height="380" fill="white"/>
</clipPath>
</defs>
</svg>
