<svg height="512" viewBox="0 0 176 176" width="512" xmlns="http://www.w3.org/2000/svg"><g id="Layer_2" data-name="Layer 2"><g id="_4.Adobe_Premiere" data-name="4.Adobe Premiere"><g id="background"><path id="background-2" d="m0 0h144.46a31.54 31.54 0 0 1 31.54 31.54v144.46a0 0 0 0 1 0 0h-144.46a31.54 31.54 0 0 1 -31.54-31.54v-144.46a0 0 0 0 1 0 0z" fill="#2d1e33" data-name="background"/><path id="shade" d="m144.46 8a23.57 23.57 0 0 1 23.54 23.54v136.46h-136.46a23.57 23.57 0 0 1 -23.54-23.54v-136.46zm0-8h-144.46v144.46a31.54 31.54 0 0 0 31.54 31.54h144.46v-144.46a31.54 31.54 0 0 0 -31.54-31.54z" fill="#d555ff"/></g><g id="icon" fill="#d555ff"><path d="m49.62 117.43v-58.68a.55.55 0 0 1 .63-.63c4.55-.12 10.35-.18 17.37-.18q12.42 0 18.22 5.58a18.35 18.35 0 0 1 5.81 13.77q0 10.17-7.21 15.12t-18.09 5h-5.35v20a.63.63 0 0 1 -.71.72h-10c-.44-.07-.67-.28-.67-.7zm11.38-50.85v22.14a55.92 55.92 0 0 0 5.86.18q6 0 9.76-2.65t3.74-8.69q0-5.31-3.29-8.19t-9.49-2.88c-1 0-2 0-3 .05s-1.8 0-2.43 0z"/><path d="m100.46 74.23h8.91a1 1 0 0 1 1 .81 23.26 23.26 0 0 1 1 5.31 17.18 17.18 0 0 1 14.4-6.93.56.56 0 0 1 .63.63v9.27a.64.64 0 0 1 -.72.72q-8.19-.54-13 4.32a2.92 2.92 0 0 0 -.81 2.16v26.82a.64.64 0 0 1 -.72.72h-9.9q-.81 0-.81-.72v-30.34q0-7-.45-12.15-.16-.62.47-.62z"/></g></g></g></svg>