<svg width="512" height="512" viewBox="0 0 512 512" fill="none" xmlns="http://www.w3.org/2000/svg">
<path d="M462.895 83.483C464.69 82.0534 467.383 82.2861 468.812 84.2476L472.569 88.8024L486.068 48.8398L444.276 54.5915L448.964 60.2767C450.56 61.9391 450.161 65.031 448.465 66.3609L319.535 172.983C317.274 174.479 315.279 174.18 313.55 172.119L253.207 82.2528L135.381 233.825C135.082 234.224 134.716 234.523 134.317 234.789L26.0322 301.947L37.8348 320.998L150.142 251.346L248.42 124.942C249.218 123.911 250.481 123.313 251.778 123.379C253.074 123.412 254.304 124.11 255.036 125.174L311.289 208.89L462.895 83.483Z" fill="black"/>
<path d="M462.895 83.483C464.69 82.0534 467.383 82.2861 468.812 84.2476L472.569 88.8024L486.068 48.8398L444.276 54.5915L448.964 60.2767C450.56 61.9391 450.161 65.031 448.465 66.3609L319.535 172.983C317.274 174.479 315.279 174.18 313.55 172.119L253.207 82.2528L135.381 233.825C135.082 234.224 134.716 234.523 134.317 234.789L26.0322 301.947L37.8348 320.998L150.142 251.346L248.42 124.942C249.218 123.911 250.481 123.313 251.778 123.379C253.074 123.412 254.304 124.11 255.036 125.174L311.289 208.89L462.895 83.483Z" fill="url(#paint0_linear_739_11)"/>
<path d="M24.4697 387.059H90.5643V510.338H24.4697V387.059Z" fill="black"/>
<path d="M24.4697 387.059H90.5643V510.338H24.4697V387.059Z" fill="url(#paint1_linear_739_11)"/>
<path d="M156.792 305.371H222.886V510.337H156.792V305.371Z" fill="black"/>
<path d="M156.792 305.371H222.886V510.337H156.792V305.371Z" fill="url(#paint2_linear_739_11)"/>
<path d="M289.114 262.582H355.208V510.337H289.114V262.582Z" fill="black"/>
<path d="M289.114 262.582H355.208V510.337H289.114V262.582Z" fill="url(#paint3_linear_739_11)"/>
<path d="M421.436 187.844H487.53V510.337H421.436V187.844Z" fill="black"/>
<path d="M421.436 187.844H487.53V510.337H421.436V187.844Z" fill="url(#paint4_linear_739_11)"/>
<path d="M307.233 89.2674C310.126 93.656 314.149 97.0139 319.202 99.1749C322.028 100.372 325.22 101.269 328.777 101.801V110.845C328.777 114.801 331.969 117.993 335.925 117.993C339.882 117.993 343.073 114.801 343.073 110.845V102.134C346.963 101.668 350.554 100.704 353.845 99.1749C358.566 97.0139 362.257 93.9219 364.783 89.9988C367.31 86.0757 368.607 81.8534 368.607 77.4315C368.607 72.9432 367.443 68.9536 365.116 65.496C362.789 62.0715 359.198 59.2123 354.377 56.9848C351.119 55.4887 345.035 53.7599 336.291 51.7651C336.224 51.7651 336.158 51.7318 336.058 51.6986L335.826 51.6321C325.552 49.2715 321.829 47.3432 320.499 46.1464C318.537 44.4175 317.606 42.2232 317.606 39.5302C317.606 36.3718 318.969 33.7786 321.762 31.5178C324.555 29.2902 329.076 28.1599 335.227 28.1266H335.659H336.524C342.043 28.2596 346.265 29.523 349.124 31.8835C351.252 33.6456 352.781 36.0393 353.679 38.9983C354.444 41.5915 356.771 43.3204 359.431 43.3204C359.564 43.3204 359.73 43.3204 359.863 43.2871C361.658 43.1541 363.321 42.2232 364.351 40.7271C365.382 39.231 365.681 37.3692 365.182 35.6071C364.484 33.2466 363.454 31.0191 362.124 28.9245C359.597 25.0679 355.907 22.1089 351.219 20.1141C348.725 19.0835 346.032 18.2856 343.14 17.8201V8.74375C343.14 4.78739 339.948 1.5957 335.992 1.5957C332.035 1.5957 328.844 4.78739 328.844 8.74375V17.6206C325.652 18.0528 322.66 18.884 319.9 20.0144C315.346 21.9095 311.788 24.7022 309.394 28.3926C307.001 32.0497 305.804 36.0393 305.804 40.2617C305.804 44.1183 306.801 47.6425 308.763 50.7344C310.724 53.8264 313.716 56.4528 317.673 58.5141C320.698 60.11 326.018 61.8388 333.465 63.6341C334.163 63.8004 334.828 63.9666 335.493 64.1328C343.206 66.0279 346.431 67.0253 347.794 67.5573C351.019 68.7874 353.38 70.3167 354.743 72.1121C356.106 73.8741 356.804 75.9354 356.804 78.296C356.804 80.6232 356.073 82.8175 354.643 84.7791C353.214 86.7739 350.986 88.3697 347.994 89.5334C344.968 90.697 341.411 91.2954 337.455 91.2954C336.856 91.2954 336.291 91.2954 335.693 91.2622C331.902 91.096 328.411 90.298 325.32 88.9682C321.795 87.4388 319.136 85.4108 317.507 82.9505C316.443 81.3879 315.645 79.5261 315.08 77.4315C314.381 74.8383 312.021 73.043 309.328 73.043C309.128 73.043 308.962 73.043 308.796 73.0762C307.067 73.2425 305.471 74.1401 304.441 75.5365C303.443 76.9328 303.077 78.6949 303.443 80.3573C304.175 83.5157 305.438 86.5079 307.233 89.2674Z" fill="black"/>
<path d="M307.233 89.2674C310.126 93.656 314.149 97.0139 319.202 99.1749C322.028 100.372 325.22 101.269 328.777 101.801V110.845C328.777 114.801 331.969 117.993 335.925 117.993C339.882 117.993 343.073 114.801 343.073 110.845V102.134C346.963 101.668 350.554 100.704 353.845 99.1749C358.566 97.0139 362.257 93.9219 364.783 89.9988C367.31 86.0757 368.607 81.8534 368.607 77.4315C368.607 72.9432 367.443 68.9536 365.116 65.496C362.789 62.0715 359.198 59.2123 354.377 56.9848C351.119 55.4887 345.035 53.7599 336.291 51.7651C336.224 51.7651 336.158 51.7318 336.058 51.6986L335.826 51.6321C325.552 49.2715 321.829 47.3432 320.499 46.1464C318.537 44.4175 317.606 42.2232 317.606 39.5302C317.606 36.3718 318.969 33.7786 321.762 31.5178C324.555 29.2902 329.076 28.1599 335.227 28.1266H335.659H336.524C342.043 28.2596 346.265 29.523 349.124 31.8835C351.252 33.6456 352.781 36.0393 353.679 38.9983C354.444 41.5915 356.771 43.3204 359.431 43.3204C359.564 43.3204 359.73 43.3204 359.863 43.2871C361.658 43.1541 363.321 42.2232 364.351 40.7271C365.382 39.231 365.681 37.3692 365.182 35.6071C364.484 33.2466 363.454 31.0191 362.124 28.9245C359.597 25.0679 355.907 22.1089 351.219 20.1141C348.725 19.0835 346.032 18.2856 343.14 17.8201V8.74375C343.14 4.78739 339.948 1.5957 335.992 1.5957C332.035 1.5957 328.844 4.78739 328.844 8.74375V17.6206C325.652 18.0528 322.66 18.884 319.9 20.0144C315.346 21.9095 311.788 24.7022 309.394 28.3926C307.001 32.0497 305.804 36.0393 305.804 40.2617C305.804 44.1183 306.801 47.6425 308.763 50.7344C310.724 53.8264 313.716 56.4528 317.673 58.5141C320.698 60.11 326.018 61.8388 333.465 63.6341C334.163 63.8004 334.828 63.9666 335.493 64.1328C343.206 66.0279 346.431 67.0253 347.794 67.5573C351.019 68.7874 353.38 70.3167 354.743 72.1121C356.106 73.8741 356.804 75.9354 356.804 78.296C356.804 80.6232 356.073 82.8175 354.643 84.7791C353.214 86.7739 350.986 88.3697 347.994 89.5334C344.968 90.697 341.411 91.2954 337.455 91.2954C336.856 91.2954 336.291 91.2954 335.693 91.2622C331.902 91.096 328.411 90.298 325.32 88.9682C321.795 87.4388 319.136 85.4108 317.507 82.9505C316.443 81.3879 315.645 79.5261 315.08 77.4315C314.381 74.8383 312.021 73.043 309.328 73.043C309.128 73.043 308.962 73.043 308.796 73.0762C307.067 73.2425 305.471 74.1401 304.441 75.5365C303.443 76.9328 303.077 78.6949 303.443 80.3573C304.175 83.5157 305.438 86.5079 307.233 89.2674Z" fill="url(#paint5_linear_739_11)"/>
<defs>
<linearGradient id="paint0_linear_739_11" x1="256.05" y1="48.8398" x2="256.05" y2="320.998" gradientUnits="userSpaceOnUse">
<stop offset="0.5" stop-color="#0910A3"/>
<stop offset="0.990385" stop-color="#03063D"/>
</linearGradient>
<linearGradient id="paint1_linear_739_11" x1="57.517" y1="387.059" x2="57.517" y2="510.338" gradientUnits="userSpaceOnUse">
<stop offset="0.5" stop-color="#0910A3"/>
<stop offset="0.990385" stop-color="#03063D"/>
</linearGradient>
<linearGradient id="paint2_linear_739_11" x1="189.839" y1="305.371" x2="189.839" y2="510.337" gradientUnits="userSpaceOnUse">
<stop offset="0.5" stop-color="#0910A3"/>
<stop offset="0.990385" stop-color="#03063D"/>
</linearGradient>
<linearGradient id="paint3_linear_739_11" x1="322.161" y1="262.582" x2="322.161" y2="510.337" gradientUnits="userSpaceOnUse">
<stop offset="0.5" stop-color="#0910A3"/>
<stop offset="0.990385" stop-color="#03063D"/>
</linearGradient>
<linearGradient id="paint4_linear_739_11" x1="454.483" y1="187.844" x2="454.483" y2="510.337" gradientUnits="userSpaceOnUse">
<stop offset="0.5" stop-color="#0910A3"/>
<stop offset="0.990385" stop-color="#03063D"/>
</linearGradient>
<linearGradient id="paint5_linear_739_11" x1="335.956" y1="1.5957" x2="335.956" y2="117.993" gradientUnits="userSpaceOnUse">
<stop offset="0.5" stop-color="#0910A3"/>
<stop offset="0.990385" stop-color="#03063D"/>
</linearGradient>
</defs>
</svg>
